<mxfile host="Electron" modified="2023-08-22T12:20:52.075Z" agent="5.0 (Windows NT 10.0; Win64; x64) AppleWebKit/537.36 (KHTML, like Gecko) draw.io/20.3.0 Chrome/104.0.5112.114 Electron/20.1.3 Safari/537.36" etag="FcUVzHZDFq-8henxpFJV" compressed="false" version="20.3.0" type="device">
  <diagram name="ND0027" id="1CP9VX86ncTdAmcYDIcw">
    <mxGraphModel dx="1408" dy="843" grid="1" gridSize="2" guides="1" tooltips="1" connect="1" arrows="1" fold="1" page="1" pageScale="1" pageWidth="1169" pageHeight="827" math="0" shadow="0">
      <root>
        <mxCell id="22vkG-h5v2N9dKBLQ-ZE-0" />
        <mxCell id="22vkG-h5v2N9dKBLQ-ZE-124" value="Connection" style="" parent="22vkG-h5v2N9dKBLQ-ZE-0" />
        <object label="Connection" PipingConnector="Y" LabelConnector="N" SignalConnector="N" Direction="0" AuxiliaryConnector="N" id="5YZIkT5Cyo4BMhXIybx2-14">
          <mxCell style="vsdxID=1407;fillColor=none;gradientColor=none;shape=stencil(rVFbDsIgEDwNnyQU4glqvcfGblsilmZBS28vZGMsxg9j/JvZmX1kR5g2TLCg0CpE8hdcbR8nYY5CaztPSDZmJEwnTDt4wpH8be6ZL1CcBV39vUxI3KdKh1YbswPTEzuBzlmiVGmKau9zUKM+jlJJQrJBko8QrZ+rrQ5oRJnXyMHBWElhRVx25ebnw/5zVvPFWRm83jxY5zilvf4eSy5xpKZ7AA==);strokeColor=#00FF00;strokeWidth=1;points=[[0.5,0.5,0,0,0]];labelBackgroundColor=none;rounded=0;html=1;whiteSpace=wrap;aspect=fixed;noLabel=1;snapToPoint=1;container=0;fontSize=16;fontFamily=Helvetica;" parent="22vkG-h5v2N9dKBLQ-ZE-124" vertex="1">
            <mxGeometry x="298" y="154.22" width="12" height="12" as="geometry" />
          </mxCell>
        </object>
        <mxCell id="22vkG-h5v2N9dKBLQ-ZE-135" value="Label" style="locked=1;" parent="22vkG-h5v2N9dKBLQ-ZE-0" />
        <object label="%LabelLines%&amp;nbsp; &amp;nbsp; &amp;nbsp; &amp;nbsp; &amp;nbsp; &amp;nbsp;%LabelIndex%" placeholders="1" LabelLines="1" LabelIndex="A" id="5YZIkT5Cyo4BMhXIybx2-15">
          <mxCell style="rounded=0;whiteSpace=wrap;html=1;fillColor=none;strokeColor=#FF0000;fontColor=#FF0000;fontSize=10;align=left;strokeWidth=1;" parent="22vkG-h5v2N9dKBLQ-ZE-135" vertex="1">
            <mxGeometry x="240" y="192" width="80" height="16" as="geometry" />
          </mxCell>
        </object>
        <mxCell id="22vkG-h5v2N9dKBLQ-ZE-136" value="Origo" style="locked=1;" parent="22vkG-h5v2N9dKBLQ-ZE-0" visible="0" />
        <object label="origo" H="2" W="3" UoM="mm" id="22vkG-h5v2N9dKBLQ-ZE-137">
          <mxCell style="vsdxID=1407;fillColor=none;gradientColor=none;shape=stencil(rVFbDsIgEDwNnyQU4glqvcfGblsilmZBS28vZGMsxg9j/JvZmX1kR5g2TLCg0CpE8hdcbR8nYY5CaztPSDZmJEwnTDt4wpH8be6ZL1CcBV39vUxI3KdKh1YbswPTEzuBzlmiVGmKau9zUKM+jlJJQrJBko8QrZ+rrQ5oRJnXyMHBWElhRVx25ebnw/5zVvPFWRm83jxY5zilvf4eSy5xpKZ7AA==);strokeColor=#ff0000;strokeWidth=1;points=[[0.5,0.5,0,0,0]];labelBackgroundColor=none;rounded=0;html=1;whiteSpace=wrap;aspect=fixed;noLabel=1;snapToPoint=1;" parent="22vkG-h5v2N9dKBLQ-ZE-136" vertex="1">
            <mxGeometry x="300.06" y="156.28" width="7.874" height="7.87" as="geometry" />
          </mxCell>
        </object>
        <object label="Symbol" Width="3" Height="2" UoM="mm" id="22vkG-h5v2N9dKBLQ-ZE-138">
          <mxCell style="" parent="22vkG-h5v2N9dKBLQ-ZE-0" />
        </object>
        <mxCell id="5YZIkT5Cyo4BMhXIybx2-4" value="" style="endArrow=none;html=1;rounded=0;startArrow=none;" parent="22vkG-h5v2N9dKBLQ-ZE-138" edge="1">
          <mxGeometry x="316" y="334" width="50" height="50" relative="1" as="geometry">
            <mxPoint x="303.9230769230769" y="160.26923076923077" as="sourcePoint" />
            <mxPoint x="304" y="160" as="targetPoint" />
          </mxGeometry>
        </mxCell>
        <mxCell id="5YZIkT5Cyo4BMhXIybx2-7" value="" style="verticalLabelPosition=bottom;verticalAlign=top;html=1;shape=mxgraph.basic.arc;strokeColor=#000000;strokeWidth=1;startAngle=0.3;endAngle=0.1;fillColor=none;rotation=15;aspect=fixed;" parent="22vkG-h5v2N9dKBLQ-ZE-138" vertex="1">
          <mxGeometry x="255.71" y="144.22" width="32" height="32" as="geometry" />
        </mxCell>
        <mxCell id="5YZIkT5Cyo4BMhXIybx2-8" value="" style="endArrow=none;html=1;rounded=0;startArrow=none;" parent="22vkG-h5v2N9dKBLQ-ZE-138" source="22vkG-h5v2N9dKBLQ-ZE-137" edge="1">
          <mxGeometry x="268" y="156.07" width="50" height="50" relative="1" as="geometry">
            <mxPoint x="272" y="160" as="sourcePoint" />
            <mxPoint x="303.9230769230769" y="160.26923076923077" as="targetPoint" />
          </mxGeometry>
        </mxCell>
        <mxCell id="5YZIkT5Cyo4BMhXIybx2-12" value="" style="endArrow=none;html=1;rounded=0;exitX=0.5;exitY=0.5;exitDx=0;exitDy=0;exitPerimeter=0;entryX=0.5;entryY=0.5;entryDx=0;entryDy=0;entryPerimeter=0;" parent="22vkG-h5v2N9dKBLQ-ZE-138" source="5YZIkT5Cyo4BMhXIybx2-7" edge="1">
          <mxGeometry width="50" height="50" relative="1" as="geometry">
            <mxPoint x="242" y="234" as="sourcePoint" />
            <mxPoint x="304" y="160.22000000000003" as="targetPoint" />
          </mxGeometry>
        </mxCell>
      </root>
    </mxGraphModel>
  </diagram>
</mxfile>
